# xmcd CD database file
#
# Track frame offsets:
#	150
#	14842
#	30249
#	44908
#	59601
#	89333
#	103665
#	114960
#	128136
#	142674
#
# Disc length: 2090 seconds
#
# Revision: 0
# Processed by: cddbd v1.5.2PL0 Copyright (c) Steve Scherf et al.
# Submitted via: CDex 1.70beta2
#
DISCID=8508280a
DTITLE=Lionel Hampton - Flying Home
DYEAR=2008
DGENRE=Jazz
TTITLE0=1 It Don’t Mean A Thing (Ellington/Mills)
TTITLE1=2 Love Is Here To Stay   (G. Gershwin/I. Gershwin)
TTITLE2=3 On A Slow Boat To China  (Loesser)
TTITLE3=4 Punch And Judy (Hampton/Morris)
TTITLE4=5 Memories Of You (Blake/Razaf)
TTITLE5=6 Prelude To A Kiss (Ellington)
TTITLE6=7 Ribs And Hot Sauce (Hampton)
TTITLE7=8 Singin’ The Blues (Till My Daddy Comes Home)   (Young/Lewis/Conrad/Robinson)
TTITLE8=9 Beulah’s Boogie (Hampton)
TTITLE9=10 Twelfth Street Rag  (Bowman)
EXTD=YEAR: 2008
EXTT0=
EXTT1=
EXTT2=
EXTT3=
EXTT4=
EXTT5=
EXTT6=
EXTT7=
EXTT8=
EXTT9=
PLAYORDER=
